<?xml version="1.0" encoding="UTF-8"?>
<svg version="1.1" xmlns="http://www.w3.org/2000/svg" width="500" height="500">
<path d="M0 0 C1.04890789 -0.00058914 2.09781578 -0.00117828 3.17850876 -0.00178528 C9.25576843 -0.00468838 15.33295756 -0.00080081 21.41020203 0.01348686 C23.29514813 0.01750442 25.18009808 0.02001217 27.06504822 0.02098274 C29.66246755 0.02309618 32.25978093 0.03166909 34.85717773 0.04223633 C35.62919997 0.04177685 36.40122221 0.04131737 37.19663906 0.04084396 C42.44799779 0.07299779 42.44799779 0.07299779 43.5625 1.1875 C43.66240627 3.02570581 43.69050097 4.86782201 43.69189453 6.70874023 C43.69655479 8.52740601 43.69655479 8.52740601 43.7013092 10.3828125 C43.69949166 11.7539065 43.69748521 13.12500026 43.6953125 14.49609375 C43.69637566 15.95385769 43.69776377 17.41162141 43.69944763 18.86938477 C43.70231692 22.92750845 43.6977358 26.98559416 43.69127274 31.04371262 C43.68750045 33.62469278 43.68542943 36.20566926 43.68380737 38.78665161 C43.6592074 72.35858173 43.43339125 105.9296695 43.17222524 139.50046366 C43.14062964 143.56820735 43.1100707 147.63595701 43.08040267 151.70371521 C43.02814246 158.86822381 42.97125083 166.03267835 42.90968513 173.19711304 C42.88960835 175.5936173 42.8707847 177.99013248 42.85339165 180.38665771 C42.76284928 192.66423344 42.57649836 204.93577017 42.16772461 217.20727539 C42.13807145 218.28163314 42.10841829 219.35599089 42.07786655 220.46290493 C42.02221484 221.9408357 42.02221484 221.9408357 41.96543884 223.44862366 C41.93603179 224.31801606 41.90662474 225.18740847 41.87632656 226.0831461 C41.5625 228.1875 41.5625 228.1875 39.5625 230.1875 C37.13232422 230.32275391 37.13232422 230.32275391 34.1171875 230.1640625 C33.04082031 230.1125 31.96445312 230.0609375 30.85546875 230.0078125 C29.16357422 229.91113281 29.16357422 229.91113281 27.4375 229.8125 C26.30183594 229.75578125 25.16617187 229.6990625 23.99609375 229.640625 C21.1842837 229.49885306 18.37332719 229.34741439 15.5625 229.1875 C15.22476562 227.94613281 14.88703125 226.70476562 14.5390625 225.42578125 C14.0886939 223.7838124 13.63816461 222.14188763 13.1875 220.5 C12.96578125 219.68337891 12.7440625 218.86675781 12.515625 218.02539062 C11.59991576 214.69921147 10.68362254 211.48748015 9.390625 208.28515625 C8.17642324 205.20956027 8.67740184 203.34856485 9.5625 200.1875 C10.7737202 197.75488128 12.13454145 195.50793264 13.5625 193.1875 C15.99785965 188.31678069 15.37008452 180.82365671 13.80859375 175.7265625 C12.84795618 173.76008088 11.80225693 171.98922287 10.5625 170.1875 C9.964375 169.28 9.36625 168.3725 8.75 167.4375 C4.84701164 163.42299769 0.22034815 160.72634268 -5.4375 160.1875 C-6.08332031 160.12433594 -6.72914063 160.06117188 -7.39453125 159.99609375 C-13.68932485 159.65434489 -19.00240598 160.95873127 -24.4375 164.1875 C-29.38742319 168.64425741 -33.21899491 173.131642 -33.703125 179.90234375 C-33.70841158 181.30989554 -33.70289629 182.71752249 -33.6875 184.125 C-33.69523437 184.82818359 -33.70296875 185.53136719 -33.7109375 186.25585938 C-33.69542674 190.39335566 -33.09205826 193.42653624 -31.4375 197.1875 C-31.71072548 202.19663387 -32.99289466 205.82972527 -35.4375 210.1875 C-39.53902171 208.8203261 -40.44148256 206.11291545 -42.375 202.5 C-43.0485922 201.2657299 -43.72436133 200.03264526 -44.40234375 198.80078125 C-44.8981897 197.89440918 -44.8981897 197.89440918 -45.40405273 196.96972656 C-46.4283145 195.20334081 -47.5460455 193.54945459 -48.71875 191.87890625 C-50.4375 189.1875 -50.4375 189.1875 -50 186.8125 C-49.09169468 185.28654707 -48.16906772 183.76860885 -47.2109375 182.2734375 C-42.76833828 175.33674749 -41.21849779 169.18953631 -42.8984375 160.91796875 C-44.83983459 154.2144388 -48.28728064 149.59161477 -53.8125 145.375 C-61.9967758 141.67258952 -68.78150127 141.55790044 -77.1875 144.5 C-84.89085137 148.49981706 -88.71624312 154.02372935 -91.4375 162.1875 C-92.22483645 169.33806381 -91.10170317 174.98242602 -87.4375 181.1875 C-86.7775 181.8475 -86.1175 182.5075 -85.4375 183.1875 C-84.74391826 188.4044409 -86.47968988 191.6572975 -89.1875 195.9375 C-92.55227761 201.50540581 -95.28022707 207.02791808 -97.4375 213.1875 C-98.7575 213.1875 -100.0775 213.1875 -101.4375 213.1875 C-103.56724225 209.72666884 -103.81772786 207.21791532 -103.4375 203.1875 C-102.96744698 201.69854594 -102.46486782 200.21963166 -101.9375 198.75 C-99.35229195 191.37600181 -100.28595245 185.21584663 -103.4375 178.1875 C-105.49537515 175.34149323 -105.49537515 175.34149323 -107.4375 173.1875 C-107.4375 172.5275 -107.4375 171.8675 -107.4375 171.1875 C-108.13875 170.919375 -108.84 170.65125 -109.5625 170.375 C-112.4375 169.1875 -112.4375 169.1875 -115 167.5625 C-120.83055875 165.2302765 -127.11248117 165.10832722 -133.109375 167.0546875 C-135.27037571 168.02219435 -137.34539271 169.0814815 -139.4375 170.1875 C-140.4275 170.5175 -141.4175 170.8475 -142.4375 171.1875 C-143.46401373 172.90269747 -143.46401373 172.90269747 -144.4375 175.1875 C-145.118125 176.198125 -145.79875 177.20875 -146.5 178.25 C-150.03801017 184.47476977 -150.13758791 191.55546344 -148.375 198.375 C-147.17338087 201.97985738 -145.63259468 204.29532894 -143.125 207.125 C-141.02393405 209.66076925 -140.43332684 210.68254798 -140.4609375 214.0234375 C-141.15837683 217.87451552 -142.20120578 221.47861735 -143.4375 225.1875 C-143.70778229 228.83416585 -143.8830706 232.48043716 -144.05859375 236.1328125 C-144.18363281 237.14085937 -144.30867187 238.14890625 -144.4375 239.1875 C-147.49784403 240.71767201 -150.81120795 240.84978027 -154.171875 241.2734375 C-155.34413887 241.42561737 -155.34413887 241.42561737 -156.54008484 241.58087158 C-158.21759197 241.798255 -159.89530966 242.01401837 -161.57321167 242.22833252 C-164.19260021 242.56315193 -166.81133769 242.90267801 -169.42993164 243.24365234 C-175.668059 244.05545521 -181.90699196 244.86098283 -188.14599609 245.66601562 C-191.05632028 246.04338751 -193.96576122 246.42686675 -196.875 246.8125 C-197.65004883 246.91095215 -198.42509766 247.0094043 -199.22363281 247.11083984 C-205.31276653 247.92333491 -211.30350596 249.1316463 -217.3215332 250.35791016 C-221.57957036 251.22275911 -225.84685786 252.03428696 -230.1171875 252.8359375 C-231.22880753 253.04478073 -231.22880753 253.04478073 -232.36288452 253.25784302 C-233.89237656 253.54501337 -235.42189765 253.83202905 -236.95144653 254.11889648 C-243.39675031 255.32986415 -249.8393574 256.55516536 -256.2822876 257.77868652 C-258.23013609 258.14816598 -260.178283 258.51607135 -262.12646484 258.88378906 C-275.57199977 261.43287579 -288.83114488 264.40622481 -302.05297852 267.953125 C-308.0325824 269.51858017 -313.2529948 270.57355846 -319.4375 270.1875 C-321.54173516 263.58141847 -322.63307284 256.84934155 -323.79296875 250.0234375 C-324.13362232 248.04993738 -324.47428096 246.07643812 -324.81517029 244.10297871 C-325.17460701 242.01863284 -325.53231638 239.93399702 -325.88955688 237.84927368 C-327.12206086 230.65949807 -328.36845056 223.47212791 -329.6171875 216.28515625 C-329.74018282 215.57679564 -329.86317814 214.86843502 -329.98990059 214.13860893 C-331.97125114 202.7383815 -334.05110008 191.36033996 -336.25 180 C-339.25584801 164.44482466 -341.8897242 148.83973076 -344.44822693 133.20541382 C-346.72577331 119.30066178 -349.1731594 105.43559982 -351.86547852 91.60546875 C-353.62499778 82.44055672 -355.11991758 73.23088805 -356.59936523 64.01733398 C-357.79155671 56.69064141 -359.19575732 49.45972397 -360.86694336 42.22631836 C-361.39378851 39.42031 -361.70459292 37.02766075 -361.4375 34.1875 C-358.67913343 31.42913343 -356.44233176 31.47052935 -352.60546875 30.8203125 C-351.91000443 30.70076706 -351.2145401 30.58122162 -350.4980011 30.45805359 C-348.20837121 30.06753619 -345.91687984 29.68957089 -343.625 29.3125 C-342.03512577 29.04534733 -340.44528229 28.77801163 -338.85546875 28.51049805 C-327.81127105 26.66882145 -316.74770571 25.02282709 -305.64526367 23.56884766 C-300.0929387 22.84148346 -294.55805084 22.05780579 -289.03097534 21.1602478 C-276.32877726 19.09911763 -263.58351949 17.44755541 -250.8125 15.875 C-248.98753494 15.6501442 -248.98753494 15.6501442 -247.1257019 15.42074585 C-198.12328266 9.42850237 -148.89455903 5.32102329 -99.61950684 2.37890625 C-96.65645592 2.20067079 -93.69394126 2.01532032 -90.73144531 1.828125 C-60.50948312 -0.04621212 -30.26774251 0.00771591 0 0 Z M-122.4375 49.1875 C-122.4375 50.8375 -122.4375 52.4875 -122.4375 54.1875 C-121.65375 54.0225 -120.87 53.8575 -120.0625 53.6875 C-108.59966216 52.10641892 -108.59966216 52.10641892 -104.4375 54.1875 C-103.8125 56.25 -103.8125 56.25 -103.4375 58.1875 C-105.20867187 58.44273437 -105.20867187 58.44273437 -107.015625 58.703125 C-108.57305121 58.94705923 -110.13033585 59.1918985 -111.6875 59.4375 C-112.46480469 59.54707031 -113.24210938 59.65664062 -114.04296875 59.76953125 C-118.67985853 60.52253044 -121.52774423 61.20256316 -124.4375 65.1875 C-125.66650739 68.956456 -125.6177634 70.69414753 -124.25 74.4375 C-122.33674726 77.34036623 -121.56292968 77.95094162 -118.4375 79.1875 C-111.74421864 80.26949661 -107.18177221 78.52962201 -101.4375 75.1875 C-101.1075 76.1775 -100.7775 77.1675 -100.4375 78.1875 C-96.4775 77.6925 -96.4775 77.6925 -92.4375 77.1875 C-92.57946516 74.33309413 -92.72595826 71.47903804 -92.875 68.625 C-92.91431641 67.82513672 -92.95363281 67.02527344 -92.99414062 66.20117188 C-92.94274898 57.870434 -92.94274898 57.870434 -95.7421875 50.4453125 C-104.25068151 44.30734418 -113.14335155 44.978829 -122.4375 49.1875 Z M-156.4375 53.1875 C-156.4375 52.5275 -156.4375 51.8675 -156.4375 51.1875 C-159.43263366 49.68993317 -162.19045762 49.73373909 -165.4375 50.1875 C-168.86061089 51.32853696 -172.14918112 52.70544079 -175.4375 54.1875 C-175.4375 53.5275 -175.4375 52.8675 -175.4375 52.1875 C-179.57843698 51.97779441 -179.57843698 51.97779441 -183.4375 53.1875 C-183.71006607 63.72672138 -182.97120124 73.76654782 -181.4375 84.1875 C-176.9825 83.6925 -176.9825 83.6925 -172.4375 83.1875 C-172.48350342 82.50123535 -172.52950684 81.8149707 -172.5769043 81.10791016 C-172.77559511 78.01022327 -172.95058134 74.91164419 -173.125 71.8125 C-173.19783203 70.73226562 -173.27066406 69.65203125 -173.34570312 68.5390625 C-173.40048828 67.5078125 -173.45527344 66.4765625 -173.51171875 65.4140625 C-173.56932373 64.46096191 -173.62692871 63.50786133 -173.6862793 62.52587891 C-173.60418213 61.75421387 -173.52208496 60.98254883 -173.4375 60.1875 C-170.0022952 57.89736347 -168.452169 58.00907027 -164.4375 58.1875 C-162.7601387 61.16019013 -162.10896103 63.56264854 -161.8046875 66.953125 C-161.67900391 68.28730469 -161.67900391 68.28730469 -161.55078125 69.6484375 C-161.47214844 70.56882812 -161.39351562 71.48921875 -161.3125 72.4375 C-161.22613281 73.37335938 -161.13976562 74.30921875 -161.05078125 75.2734375 C-160.8391857 77.57747791 -160.6373875 79.88241434 -160.4375 82.1875 C-155.9825 81.6925 -155.9825 81.6925 -151.4375 81.1875 C-151.48350342 80.50123535 -151.52950684 79.8149707 -151.5769043 79.10791016 C-151.77559511 76.01022327 -151.95058134 72.91164419 -152.125 69.8125 C-152.19783203 68.73226562 -152.27066406 67.65203125 -152.34570312 66.5390625 C-152.40048828 65.5078125 -152.45527344 64.4765625 -152.51171875 63.4140625 C-152.59812622 61.98441162 -152.59812622 61.98441162 -152.6862793 60.52587891 C-152.60418213 59.75421387 -152.52208496 58.98254883 -152.4375 58.1875 C-148.7933226 55.7580484 -146.72508728 56.02570425 -142.4375 56.1875 C-141.63581609 59.1123248 -141.19246333 61.93588136 -140.90234375 64.953125 C-140.77182617 66.28730469 -140.77182617 66.28730469 -140.63867188 67.6484375 C-140.5081543 69.02902344 -140.5081543 69.02902344 -140.375 70.4375 C-140.28412109 71.37335938 -140.19324219 72.30921875 -140.09960938 73.2734375 C-139.87622087 75.57786626 -139.65650324 77.88265035 -139.4375 80.1875 C-136.4675 79.8575 -133.4975 79.5275 -130.4375 79.1875 C-130.08757196 64.06954902 -130.08757196 64.06954902 -134.77734375 50.484375 C-141.49140648 45.23950718 -150.03166642 49.71767348 -156.4375 53.1875 Z M-282.4375 52.1875 C-282.4375 54.1675 -282.4375 56.1475 -282.4375 58.1875 C-281.15875 58.208125 -279.88 58.22875 -278.5625 58.25 C-277.84320313 58.26160156 -277.12390625 58.27320313 -276.3828125 58.28515625 C-274.35564596 58.31399242 -274.35564596 58.31399242 -272.4375 57.1875 C-272.4375 55.2075 -272.4375 53.2275 -272.4375 51.1875 C-275.9594721 51.10745518 -279.05731469 51.14744298 -282.4375 52.1875 Z M-217.4375 59.1875 C-218.035625 59.6825 -218.63375 60.1775 -219.25 60.6875 C-222.23589461 64.45915636 -221.91906846 69.58680128 -221.4375 74.1875 C-219.90210494 78.79368518 -218.31515473 82.19616635 -214.4375 85.1875 C-206.82545111 88.64752222 -200.11410055 87.35844185 -192.44140625 85.0390625 C-190.25679606 84.36632297 -190.25679606 84.36632297 -189.4375 82.1875 C-190.32913577 80.07066159 -190.32913577 80.07066159 -191.4375 78.1875 C-192.406875 78.5175 -193.37625 78.8475 -194.375 79.1875 C-199.54427246 80.64792454 -205.06327776 81.43396668 -209.9375 78.875 C-211.4375 77.1875 -211.4375 77.1875 -212.4375 74.1875 C-211.36371094 74.13851562 -210.28992188 74.08953125 -209.18359375 74.0390625 C-207.74737358 73.96396602 -206.31117681 73.88842124 -204.875 73.8125 C-204.17052734 73.7815625 -203.46605469 73.750625 -202.74023438 73.71875 C-198.02454259 73.45797442 -193.93364504 72.64091877 -189.4375 71.1875 C-189.9488328 65.15377295 -190.56524789 60.94593327 -195.11328125 56.578125 C-201.78849314 52.58421671 -211.90075258 53.95003623 -217.4375 59.1875 Z M-317.4375 62.1875 C-322.75540508 67.9960846 -323.81036017 73.21201298 -323.70703125 80.98046875 C-323.21376421 86.84963167 -321.76623421 91.92779941 -317.4609375 96.10546875 C-310.06253155 101.76861221 -303.54132537 101.8836217 -294.4375 101.1875 C-290.89110346 100.20071408 -287.69080435 98.90218276 -284.4375 97.1875 C-284.9325 93.2275 -284.9325 93.2275 -285.4375 89.1875 C-286.283125 89.48785156 -287.12875 89.78820312 -288 90.09765625 C-300.03343393 94.13159149 -300.03343393 94.13159149 -306.4375 92.1875 C-310.54361139 89.06328481 -312.33386164 86.20403799 -313.4375 81.1875 C-313.90184435 75.98684324 -313.4775449 72.50240244 -310.4375 68.1875 C-304.33238098 64.33862062 -297.49767514 64.49538734 -290.4375 64.1875 C-290.9325 60.7225 -290.9325 60.7225 -291.4375 57.1875 C-300.15296585 55.25072981 -310.14692496 56.79809532 -317.4375 62.1875 Z M-253.4375 64.1875 C-253.4375 63.5275 -253.4375 62.8675 -253.4375 62.1875 C-258.08802872 61.91817479 -258.08802872 61.91817479 -262.4375 63.1875 C-261.1175 73.4175 -259.7975 83.6475 -258.4375 94.1875 C-255.4675 93.5275 -252.4975 92.8675 -249.4375 92.1875 C-249.5096875 91.36507812 -249.581875 90.54265625 -249.65625 89.6953125 C-250.10456681 84.30305755 -250.52909608 78.90949404 -250.6875 73.5 C-250.71328125 72.71238281 -250.7390625 71.92476562 -250.765625 71.11328125 C-250.65734375 70.47777344 -250.5490625 69.84226562 -250.4375 69.1875 C-247.34861478 67.12824319 -246.72814073 66.9484626 -243.25 67.0625 C-241.3628125 67.124375 -241.3628125 67.124375 -239.4375 67.1875 C-236.38818401 79.59572294 -236.38818401 79.59572294 -235.8125 85.4375 C-235.8581927 88.97788656 -235.8581927 88.97788656 -234.4375 90.1875 C-232.91230724 90.09812197 -231.39068071 89.94212854 -229.875 89.75 C-229.04871094 89.64816406 -228.22242188 89.54632813 -227.37109375 89.44140625 C-226.41396484 89.31572266 -226.41396484 89.31572266 -225.4375 89.1875 C-225.85701116 85.64346252 -226.30130471 82.10295136 -226.75 78.5625 C-226.92692383 77.06396484 -226.92692383 77.06396484 -227.10742188 75.53515625 C-227.7909783 70.24197575 -228.45011129 65.74603389 -231.4375 61.1875 C-238.98625485 56.15499677 -246.33029811 60.03297697 -253.4375 64.1875 Z M-278.5625 65.1875 C-279.65820312 65.373125 -280.75390625 65.55875 -281.8828125 65.75 C-282.72585938 65.894375 -283.56890625 66.03875 -284.4375 66.1875 C-284.1075 68.4975 -283.7775 70.8075 -283.4375 73.1875 C-282.1175 73.1875 -280.7975 73.1875 -279.4375 73.1875 C-278.1175 80.7775 -276.7975 88.3675 -275.4375 96.1875 C-272.4675 95.8575 -269.4975 95.5275 -266.4375 95.1875 C-266.13276234 88.54993278 -267.29157485 82.27325633 -268.4375 75.75 C-268.62828125 74.63689453 -268.8190625 73.52378906 -269.015625 72.37695312 C-269.48442365 69.64620097 -269.95851904 66.91648129 -270.4375 64.1875 C-273.21076794 64.1875 -275.82949678 64.72230796 -278.5625 65.1875 Z M-174.4375 113.1875 C-175.4275 113.6825 -175.4275 113.6825 -176.4375 114.1875 C-176.4375 113.1975 -176.4375 112.2075 -176.4375 111.1875 C-180.8925 111.6825 -180.8925 111.6825 -185.4375 112.1875 C-185.5522776 116.86512922 -185.5522776 116.86512922 -184.96484375 121.48828125 C-184.10499684 125.88942356 -183.98848822 130.34255243 -183.71875 134.8125 C-183.47913181 137.68791824 -183.07589635 140.37855605 -182.4375 143.1875 C-177.9825 142.6925 -177.9825 142.6925 -173.4375 142.1875 C-173.7675 134.9275 -174.0975 127.6675 -174.4375 120.1875 C-169.64079597 117.30947758 -168.60480509 116.82699034 -163.4375 117.1875 C-161.87094117 120.00270769 -161.14445888 122.24118843 -160.875 125.4453125 C-160.80023438 126.23550781 -160.72546875 127.02570313 -160.6484375 127.83984375 C-160.50715083 129.49603744 -160.36653198 131.15228822 -160.2265625 132.80859375 C-160.15179688 133.59621094 -160.07703125 134.38382813 -160 135.1953125 C-159.93941406 135.91348145 -159.87882812 136.63165039 -159.81640625 137.37158203 C-159.55982847 139.43034872 -159.55982847 139.43034872 -157.4375 141.1875 C-155.4443433 141.21125926 -155.4443433 141.21125926 -153.3125 140.8125 C-152.03375 140.60625 -150.755 140.4 -149.4375 140.1875 C-149.71641912 136.62388218 -150.01287734 133.06193209 -150.3125 129.5 C-150.39113281 128.49259766 -150.46976563 127.48519531 -150.55078125 126.44726562 C-150.63457031 125.47080078 -150.71835938 124.49433594 -150.8046875 123.48828125 C-150.87800293 122.59278564 -150.95131836 121.69729004 -151.02685547 120.7746582 C-151.67947676 116.6629889 -152.75618173 113.90775074 -155.625 110.875 C-162.31668074 106.85999156 -168.12075402 109.98409929 -174.4375 113.1875 Z M-299.75 117.625 C-300.94173828 117.85509766 -302.13347656 118.08519531 -303.36132812 118.32226562 C-309.05763232 119.26107765 -309.05763232 119.26107765 -314.4375 121.1875 C-314.1075 123.1675 -313.7775 125.1475 -313.4375 127.1875 C-306.39542295 126.4687193 -306.39542295 126.4687193 -299.4375 125.1875 C-299.3950415 125.75130371 -299.35258301 126.31510742 -299.30883789 126.89599609 C-298.66719089 134.30942971 -297.32623173 141.51975567 -295.875 148.8125 C-295.64103516 150.00746094 -295.40707031 151.20242188 -295.16601562 152.43359375 C-294.59393102 155.35239275 -294.01767925 158.2703012 -293.4375 161.1875 C-290.4675 160.5275 -287.4975 159.8675 -284.4375 159.1875 C-285.16787997 151.40517545 -286.54312803 143.80112375 -288 136.125 C-288.23396484 134.87783203 -288.46792969 133.63066406 -288.70898438 132.34570312 C-289.2822073 129.29241364 -289.85944646 126.23987863 -290.4375 123.1875 C-286.1475 122.5275 -281.8575 121.8675 -277.4375 121.1875 C-278.0975 119.2075 -278.7575 117.2275 -279.4375 115.1875 C-286.3973343 114.79008633 -292.9479571 116.26758297 -299.75 117.625 Z M-200.4375 114.1875 C-202.0873007 117.48710141 -201.82008361 121.17877884 -202 124.8125 C-202.06477539 126.01519531 -202.06477539 126.01519531 -202.13085938 127.2421875 C-202.23701457 129.2237511 -202.33776855 131.20560271 -202.4375 133.1875 C-205.77645691 130.49026454 -207.0546619 126.86574588 -208.625 123 C-208.89763672 122.34580078 -209.17027344 121.69160156 -209.45117188 121.01757812 C-210.11989798 119.41028908 -210.77959925 117.79925038 -211.4375 116.1875 C-213.7475 116.5175 -216.0575 116.8475 -218.4375 117.1875 C-218.77558686 119.24922613 -219.10777361 121.3119203 -219.4375 123.375 C-219.623125 124.52355469 -219.80875 125.67210937 -220 126.85546875 C-220.37239477 129.69165393 -220.52346021 132.33469564 -220.4375 135.1875 C-221.4275 135.1875 -222.4175 135.1875 -223.4375 135.1875 C-223.61925781 134.630625 -223.80101562 134.07375 -223.98828125 133.5 C-225.68612185 128.34553009 -227.50172235 123.25739385 -229.4375 118.1875 C-233.8925 118.6825 -233.8925 118.6825 -238.4375 119.1875 C-234.72473055 129.32520382 -230.79131971 139.30649072 -226.4375 149.1875 C-221.9825 148.6925 -221.9825 148.6925 -217.4375 148.1875 C-216.93203964 146.10548472 -216.43333165 144.02182933 -215.9375 141.9375 C-215.6590625 140.77734375 -215.380625 139.6171875 -215.09375 138.421875 C-214.30493548 135.08419288 -214.30493548 135.08419288 -214.4375 131.1875 C-213.4475 131.1875 -212.4575 131.1875 -211.4375 131.1875 C-211.0971875 132.3940625 -211.0971875 132.3940625 -210.75 133.625 C-209.10118412 138.10035739 -206.83205588 142.07471318 -204.4375 146.1875 C-199.9825 145.6925 -199.9825 145.6925 -195.4375 145.1875 C-194.1175 134.6275 -192.7975 124.0675 -191.4375 113.1875 C-194.72977921 113.1875 -197.29304549 113.33764743 -200.4375 114.1875 Z M-272.875 128.8125 C-275.84816428 133.33170971 -275.92679811 136.8576456 -275.4375 142.1875 C-274.03414746 147.49134709 -271.34757486 151.49502969 -266.5703125 154.2734375 C-260.76289143 156.76233224 -254.17875656 155.28175503 -248.453125 153.1796875 C-244.80845485 151.38560568 -242.24477131 148.80204262 -240.4375 145.1875 C-239.70979703 137.84809572 -239.66695466 131.85368726 -243.953125 125.67578125 C-247.46277573 122.1568946 -250.83503242 121.86999369 -255.6875 121.8125 C-263.08215881 121.93698921 -267.82032235 123.36900099 -272.875 128.8125 Z " fill="#040404" transform="translate(398.4375,114.8125)"/>
<path d="M0 0 C2.67431489 1.81163267 2.95920359 2.87761077 4 6 C4.203125 8.15625 4.203125 8.15625 4.25 10.5 C4.27578125 11.2734375 4.3015625 12.046875 4.328125 12.84375 C3.91371565 15.56701145 3.19317761 16.37248358 1 18 C-1.67601682 18.98531163 -4.1621109 19.29319322 -7 19 C-9.74066224 16.84245739 -11.44396502 15.11206995 -13 12 C-13.48602588 7.70677141 -13.46241608 5.67917361 -11 2.0625 C-6.88387501 -0.76733593 -4.92224114 -0.63512789 0 0 Z " fill="#161616" transform="translate(145,244)"/>
<path d="M0 0 C1.09054687 0.02320313 2.18109375 0.04640625 3.3046875 0.0703125 C4.40039062 0.08835938 5.49609375 0.10640625 6.625 0.125 C7.46804688 0.14820313 8.31109375 0.17140625 9.1796875 0.1953125 C9.5096875 2.1753125 9.8396875 4.1553125 10.1796875 6.1953125 C6.84840602 8.79533707 4.73352642 10.1296028 0.4921875 10.6328125 C-2.8203125 10.1953125 -2.8203125 10.1953125 -4.8203125 9.0078125 C-5.8203125 7.1953125 -5.8203125 7.1953125 -5.6328125 4.6328125 C-4.47267417 1.15239752 -3.70907812 0.25686137 0 0 Z " fill="#272727" transform="translate(286.8203125,178.8046875)"/>
<path d="M0 0 C3 2 3 2 3.6875 4.625 C3.790625 5.40875 3.89375 6.1925 4 7 C0.33552568 8.64800856 -2.81203466 9.33580973 -6.8125 9.625 C-7.78832031 9.69976562 -8.76414063 9.77453125 -9.76953125 9.8515625 C-10.87361328 9.92503906 -10.87361328 9.92503906 -12 10 C-12.36768802 4.48467967 -12.36768802 4.48467967 -10.625 2.1875 C-7.09302545 -0.39355833 -4.32555844 -0.22766097 0 0 Z " fill="#242424" transform="translate(197,175)"/>
<path d="M0 0 C0.98484375 0.00902344 1.9696875 0.01804688 2.984375 0.02734375 C4.10585937 0.04474609 4.10585937 0.04474609 5.25 0.0625 C5.25 0.3925 5.25 0.7225 5.25 1.0625 C4.57453125 1.09988281 3.8990625 1.13726562 3.203125 1.17578125 C2.31109375 1.24152344 1.4190625 1.30726563 0.5 1.375 C-0.38171875 1.43300781 -1.2634375 1.49101562 -2.171875 1.55078125 C-5.07303774 2.1266181 -6.54225607 3.13846148 -8.75 5.0625 C-9.08 3.7425 -9.41 2.4225 -9.75 1.0625 C-6.43929162 0.06140485 -3.44915231 -0.04106134 0 0 Z " fill="#5A5A5A" transform="translate(195.75,187.9375)"/>
<path d="M0 0 C1.134375 0.020625 2.26875 0.04125 3.4375 0.0625 C2.6021875 0.43375 2.6021875 0.43375 1.75 0.8125 C-0.96221127 2.27856015 -3.19837365 4.09239471 -5.5625 6.0625 C-4.48849278 0.07874549 -4.48849278 0.07874549 0 0 Z " fill="#383838" transform="translate(42.5625,146.9375)"/>
</svg>
